<svg width="42" height="42" viewBox="0 0 42 42" fill="none" xmlns="http://www.w3.org/2000/svg">
<path d="M30.5296 11.4282C31.4203 10.5607 31.4203 9.14703 30.5296 8.27955L27.2531 5.07125L27.2578 5.07584C26.3906 4.22672 24.9 2.76715 22.7906 0.706313C21.7968 -0.243785 20.189 -0.234605 19.2046 0.729262L0.745274 18.7903C0.5091 19.02 0.321663 19.2931 0.193756 19.5941C0.0658495 19.895 0 20.2177 0 20.5436C0 20.8696 0.0658495 21.1923 0.193756 21.4932C0.321663 21.7941 0.5091 22.0672 0.745274 22.2969L19.2 40.3534C19.6758 40.8185 20.3206 41.0797 20.9929 41.0797C21.6652 41.0797 22.3101 40.8185 22.7859 40.3534L30.525 32.7801C31.4156 31.9127 31.4156 30.499 30.525 29.6315C30.0972 29.2147 29.5183 28.9808 28.9148 28.9808C28.3113 28.9808 27.7324 29.2147 27.3046 29.6315L21.4453 35.378C21.2015 35.6167 20.8218 35.6167 20.5781 35.378L5.8359 20.9567C5.59215 20.718 5.59215 20.3463 5.8359 20.1076L20.5734 5.68629C20.5921 5.66793 20.6156 5.65416 20.6343 5.63581C20.8781 5.44762 21.2156 5.46598 21.4406 5.68629L27.3093 11.4282C28.2 12.3003 29.6437 12.3003 30.5296 11.4282ZM16.1062 20.6354C16.1062 21.9282 16.6312 23.168 17.5656 24.0821C18.5001 24.9963 19.7675 25.5098 21.089 25.5098C22.4105 25.5098 23.6779 24.9963 24.6124 24.0821C25.5469 23.168 26.0718 21.9282 26.0718 20.6354C26.0718 19.3426 25.5469 18.1028 24.6124 17.1887C23.6779 16.2746 22.4105 15.761 21.089 15.761C19.7675 15.761 18.5001 16.2746 17.5656 17.1887C16.6312 18.1028 16.1062 19.3426 16.1062 20.6354ZM41.2406 18.8637L35.4796 13.2504C34.589 12.3829 33.1453 12.3829 32.2593 13.2549C32.0476 13.4614 31.8796 13.7067 31.7649 13.9769C31.6503 14.247 31.5913 14.5367 31.5913 14.8293C31.5913 15.1218 31.6503 15.4115 31.7649 15.6817C31.8796 15.9518 32.0476 16.1972 32.2593 16.4036L36.15 20.2086C36.3937 20.4472 36.3937 20.819 36.15 21.0577L32.3156 24.8076C32.1038 25.014 31.9358 25.2593 31.8212 25.5295C31.7065 25.7997 31.6475 26.0893 31.6475 26.3819C31.6475 26.6745 31.7065 26.9641 31.8212 27.2343C31.9358 27.5045 32.1038 27.7498 32.3156 27.9562C32.7434 28.373 33.3223 28.607 33.9257 28.607C34.5292 28.607 35.1081 28.373 35.5359 27.9562L41.2453 22.3704C41.4806 22.1401 41.6673 21.8666 41.7944 21.5656C41.9216 21.2645 41.9869 20.9419 41.9864 20.6161C41.986 20.2903 41.9199 19.9678 41.7919 19.6671C41.6639 19.3664 41.4766 19.0934 41.2406 18.8637Z" fill="black"/>
</svg>
