<svg width="39" height="34" viewBox="0 0 39 34" fill="none" xmlns="http://www.w3.org/2000/svg">
<path d="M32.8714 23.079C33.2068 22.886 33.414 22.5283 33.4153 22.1406L33.4348 15.8552C33.436 15.4675 33.6433 15.1098 33.9786 14.9168L37.3771 12.9595C37.7123 12.7665 38.1247 12.7672 38.4593 12.9614C38.7939 13.1555 39 13.5137 39 13.9012V25.3284C39 25.7173 38.7925 26.0764 38.4562 26.2701L25.6302 33.6558C25.2969 33.8477 24.8871 33.8481 24.5533 33.6569L14.4878 27.8852C14.1503 27.6919 13.9419 27.3321 13.9418 26.9424V21.1805C13.9418 21.174 13.9494 21.1696 13.9559 21.1729C13.9613 21.1761 13.9689 21.1729 13.9689 21.1653V21.1588C13.9689 21.1544 13.9711 21.1501 13.9754 21.1479L22.2653 16.3733C22.2729 16.3689 22.2696 16.357 22.261 16.357C22.2562 16.357 22.2523 16.3531 22.2523 16.3483L22.2685 10.6993C22.2701 10.3105 22.0642 9.95051 21.7287 9.75544C21.3932 9.56037 20.9794 9.55996 20.6435 9.75437L14.4824 13.3136C14.1478 13.5068 13.7359 13.5068 13.4012 13.3136L7.22062 9.74568C6.8855 9.55222 6.47293 9.55251 6.13808 9.74645C5.80323 9.94039 5.59689 10.2986 5.59666 10.6863V20.8959C5.59692 21.2832 5.39148 21.6413 5.05746 21.8358C4.72343 22.0304 4.31137 22.0319 3.97595 21.8398L0.546018 19.8739C0.20782 19.6802 -0.000649987 19.3194 1.52261e-06 18.9289L0.0303372 1.08377C0.0311774 0.696602 0.237525 0.339155 0.571956 0.145549C0.906386 -0.0480567 1.31833 -0.048546 1.65322 0.144265L13.4023 6.90978C13.7364 7.10214 14.1472 7.10214 14.4813 6.90978L26.2271 0.144265C26.5625 -0.0488347 26.9752 -0.0480336 27.3098 0.146367C27.6445 0.340767 27.8503 0.699278 27.85 1.08703V18.9365C27.8502 19.3252 27.6432 19.6843 27.3073 19.8782L21.1559 23.4299C20.8196 23.6242 20.6127 23.9842 20.6136 24.3733C20.6145 24.7625 20.8231 25.1215 21.1603 25.3143L24.5533 27.2509C24.887 27.4413 25.2963 27.4405 25.6291 27.2487L32.8714 23.079ZM33.5832 7.06727C33.5835 7.45831 33.7934 7.819 34.1329 8.01163C34.4723 8.20425 34.8888 8.19908 35.2234 7.99809L38.4735 6.04305C38.7998 5.84699 38.9997 5.49367 39 5.11224V1.1283C38.9993 0.737458 38.7892 0.377129 38.4498 0.184767C38.1105 -0.00759452 37.6942 -0.00232286 37.3598 0.198571L34.1097 2.15361C33.7833 2.34967 33.5835 2.70299 33.5832 3.08443V7.06836V7.06727Z" fill="#007FFF"/>
</svg>
