<svg width="40" height="37" viewBox="0 0 40 37" fill="none" xmlns="http://www.w3.org/2000/svg">
<path d="M27.7158 25.8405C29.1919 25.6916 30.3117 24.4518 30.2608 22.9637C30.21 21.4759 28.9373 20.2855 27.4103 20.2855H27.3086C25.7305 20.3351 24.5089 21.6246 24.5598 23.1621C24.6108 23.9061 24.9161 24.5509 25.3742 24.9972C23.6436 28.3204 20.9967 30.7506 17.0264 32.7841C14.3286 34.1729 11.5291 34.6689 8.72953 34.3218C6.4389 34.0241 4.65734 33.0323 3.53734 31.3954C1.90859 28.9651 1.75594 26.3364 3.13031 23.7077C4.0975 21.823 5.62437 20.4342 6.59156 19.7399C6.38797 19.0951 6.0825 18.004 5.92984 17.2105C-1.45094 22.4183 -0.687346 29.4611 1.55234 32.7841C3.23203 35.2641 6.6425 36.8016 10.4092 36.8016C11.4272 36.8016 12.4452 36.7024 13.4633 36.4545C19.9787 35.2145 24.9162 31.445 27.7158 25.8405ZM36.6745 19.6904C32.8059 15.2761 27.105 12.8459 20.5895 12.8459H19.7752C19.317 11.9531 18.3498 11.3579 17.2809 11.3579H17.1791C15.6012 11.4075 14.3797 12.697 14.4305 14.2346C14.4814 15.7225 15.7539 16.9129 17.2809 16.9129H17.3827C18.5025 16.8632 19.4697 16.1689 19.8769 15.2265H20.7931C24.6617 15.2265 28.3266 16.3176 31.6353 18.4504C34.1803 20.0871 36.0128 22.2199 37.0308 24.7989C37.8961 26.882 37.8451 28.9155 36.9289 30.6515C35.5037 33.2801 33.1114 34.7185 29.9555 34.7185C27.9194 34.7185 25.9852 34.1232 24.967 33.6769C24.4072 34.1729 23.3891 34.9664 22.6764 35.4625C24.8653 36.4544 27.105 37 29.2428 37C34.1294 37 37.7434 34.3712 39.1178 31.7426C40.5939 28.8659 40.492 23.9061 36.6745 19.6904ZM10.8164 26.6835C10.8673 28.1715 12.1398 29.3617 13.6669 29.3617H13.7687C15.3467 29.3122 16.5683 28.0226 16.5173 26.4851C16.4666 24.9971 15.1939 23.8069 13.6669 23.8069H13.5652C13.4633 23.8069 13.3105 23.8069 13.2089 23.8563C11.1219 20.4837 10.2566 16.8136 10.562 12.8457C10.7655 9.86985 11.7836 7.29072 13.5652 5.15796C15.0412 3.32284 17.8917 2.43009 19.8261 2.38061C25.2216 2.28135 27.512 8.82821 27.6648 11.457C28.3266 11.6057 29.4464 11.953 30.21 12.201C29.5991 4.16626 24.5089 0 19.6225 0C15.0412 0 10.8164 3.22388 9.13656 7.98525C6.79515 14.3337 8.32218 20.4342 11.1727 25.2452C10.9183 25.5924 10.7655 26.1378 10.8164 26.6835Z" fill="#764ABC"/>
</svg>
