<svg width="30" height="31" viewBox="0 0 30 31" fill="none" xmlns="http://www.w3.org/2000/svg">
<path d="M30 27.6807C30 29.095 28.8525 30.2521 27.45 30.2521H2.55C1.1475 30.2521 0 29.095 0 27.6807V2.57143C0 1.15714 1.1475 0 2.55 0H27.45C28.8525 0 30 1.15714 30 2.57143V27.6807Z" fill="#222222"/>
<path d="M30 27.6807C30 29.095 28.8525 30.2521 27.45 30.2521H2.55C1.1475 30.2521 0 29.095 0 27.6807V2.57143C0 1.15714 1.1475 0 2.55 0H27.45C28.8525 0 30 1.15714 30 2.57143V27.6807Z" fill="#222222"/>
<path d="M9.1077 4.3336C9.1797 6.542 10.6962 7.76872 13.7202 8.2452C16.2822 8.65057 18.5937 8.44486 19.3482 6.2304C20.8182 1.91343 17.3292 2.98738 14.3067 2.50788C11.2827 2.02839 8.9922 0.785027 9.1077 4.3336Z" fill="#FF4000"/>
<path d="M10.0166 13.403C10.2971 15.0518 11.8211 15.9971 14.1536 15.9336C16.4861 15.8686 18.2261 14.9504 18.4676 13.1716C18.9146 9.87865 16.3421 11.1523 14.0096 11.2158C11.6756 11.2808 9.46309 10.1676 10.0166 13.403Z" fill="#FF4000"/>
<path d="M13.0513 20.9526C13.5148 22.1839 14.7853 22.7042 16.5028 22.3336C18.2188 21.9645 19.4053 21.3913 19.3093 19.9876C19.1353 17.3904 17.4388 18.2072 15.7228 18.5778C14.0053 18.9454 12.1468 18.5355 13.0513 20.9526Z" fill="#FF4000"/>
<path d="M14.5245 26.7066C14.6595 27.7457 15.5505 28.3583 16.9455 28.3478C18.3435 28.3357 19.401 27.7805 19.581 26.6673C19.917 24.6056 18.354 25.3725 16.9575 25.3846C15.5595 25.3951 14.259 24.6676 14.5245 26.7066Z" fill="#FF4000"/>
</svg>
